<?xml version="1.0" encoding="UTF-8"?>
<svg width="131px" height="44px" viewBox="0 0 131 44" version="1.1" xmlns="http://www.w3.org/2000/svg" xmlns:xlink="http://www.w3.org/1999/xlink">
    <!-- Generator: Sketch 52.6 (67491) - http://www.bohemiancoding.com/sketch -->
    <title>Group 29</title>
    <desc>Created with Sketch.</desc>
    <g id="Page-1" stroke="none" stroke-width="1" fill="none" fill-rule="evenodd">
        <g id="3---Hubspot-page" transform="translate(-112.000000, -37.000000)">
            <g id="Group-29" transform="translate(112.000000, 37.000000)">
                <path d="M11.6238537,36.94368 C5.21443902,36.94368 0,31.72128 0,25.30208 C0,18.88288 5.21443902,13.66048 11.6238537,13.66048 C18.0332683,13.66048 23.2477073,18.88288 23.2477073,25.30208 C23.2477073,31.72128 18.0332683,36.94368 11.6238537,36.94368 M11.6238537,17.76928 C7.47658537,17.76928 4.10253659,21.14848 4.10253659,25.30208 C4.10253659,29.45568 7.47658537,32.83488 11.6238537,32.83488 C15.771122,32.83488 19.1451707,29.45568 19.1451707,25.30208 C19.1451707,21.14848 15.771122,17.76928 11.6238537,17.76928" id="Fill-1" fill="#1A174F"></path>
                <polygon id="Fill-3" fill="#1A174F" points="22.0488177 36.93368 16.4046348 27.16488 11.2932384 27.16488 16.9374213 36.93368"></polygon>
                <g id="Group-8" transform="translate(75.884146, 1.384480)">
                    <path d="M51.784939,21.50368 L49.7376646,17.06048 L33.8363415,13.61088 L30.0149756,7.36928 L20.836189,7.36928 C20.836189,7.36928 16.7815793,5.07488 12.7229756,3.91328 C7.94546951,2.54608 1.62152439,2.88848 1.62152439,2.88848 L0.598286585,0.82448 C0.598286585,0.82448 7.28008537,0.42928 13.2437805,2.00048 C19.2066768,3.57168 21.8386585,5.44048 21.8386585,5.44048 L31.6820305,5.44048 L35.7582073,11.90208 L51.784939,15.35168 L54.85625,21.50368 L51.784939,21.50368 Z" id="Fill-4" fill="#19164F"></path>
                    <path d="M51.784939,21.50368 L49.7376646,17.06048 L33.8363415,13.61088 L30.0149756,7.36928 L20.836189,7.36928 C20.836189,7.36928 16.7815793,5.07488 12.7229756,3.91328 C7.94546951,2.54608 1.62152439,2.88848 1.62152439,2.88848 L0.598286585,0.82448 C0.598286585,0.82448 7.28008537,0.42928 13.2437805,2.00048 C19.2066768,3.57168 21.8386585,5.44048 21.8386585,5.44048 L31.6820305,5.44048 L35.7582073,11.90208 L51.784939,15.35168 L54.85625,21.50368 L51.784939,21.50368 Z" id="Stroke-6" stroke="#19164F" stroke-width="0.5" stroke-linecap="round" stroke-linejoin="round"></path>
                </g>
                <polygon id="Fill-9" fill="#19164F" points="103.98141 10.88232 97.6390927 15.02712 106.511946 15.02712"></polygon>
                <g id="Group-16" transform="translate(0.000000, 0.584480)" fill="#19164F">
                    <path d="M78.4338537,14.19472 C78.4338537,14.19472 72.9046951,2.13072 72.1802012,0.77712 C71.9924878,0.42512 71.7544512,0.26912 71.3798232,0.24112 L71.3638476,0.21552 L0.00159756098,0.21552 L1.70779268,2.91632 L69.5633963,2.91632 C70.6409512,4.93152 75.0102805,14.19472 75.0102805,14.19472 L78.4338537,14.19472 Z" id="Fill-10"></path>
                    <path d="M39.4335561,35.86584 L35.7719463,35.86584 L35.7719463,34.72184 C35.205611,35.22984 34.5953427,35.59704 33.9411415,35.82184 C33.2869402,36.04664 32.618361,36.15944 31.9346049,36.15944 C30.9393244,36.15944 30.0263183,35.94904 29.1963854,35.52824 C28.3664524,35.10744 27.6675195,34.55544 27.1019829,33.87064 C26.6522695,33.30344 26.3008061,32.64344 26.0467939,31.89064 C25.7927817,31.13704 25.6657756,30.23304 25.6657756,29.17704 L25.6657756,21.63704 L29.474361,21.63704 L29.474361,29.32344 C29.474361,29.96904 29.5374646,30.47304 29.6644707,30.83464 C29.7914768,31.19624 29.9624159,31.50424 30.1772878,31.75864 C30.4696415,32.09064 30.8067268,32.32104 31.1877451,32.44824 C31.5687634,32.57544 31.9441902,32.63864 32.3148244,32.63864 C32.7261963,32.63864 33.1016232,32.58024 33.4427024,32.46264 C33.7845805,32.34584 34.0969037,32.19864 34.3804707,32.02264 C34.6640378,31.84664 34.9076659,31.65544 35.1129524,31.45064 C35.318239,31.24504 35.489178,31.05464 35.6257695,30.87864 L35.6257695,21.63704 L39.4335561,21.63704 L39.4335561,35.86584 Z" id="Fill-12"></path>
                    <path d="M43.2292811,14.17688 C43.717336,13.70728 44.3036409,13.47288 44.9865982,13.47288 C45.6703543,13.47288 46.2566591,13.70728 46.744714,14.17688 C47.2327689,14.64648 47.476397,15.22328 47.476397,15.90728 C47.476397,16.59208 47.2327689,17.16888 46.744714,17.63848 C46.2566591,18.10808 45.6703543,18.34248 44.9865982,18.34248 C44.3036409,18.34248 43.717336,18.10808 43.2292811,17.63848 C42.7412262,17.16888 42.4967994,16.59208 42.4967994,15.90728 C42.4967994,15.22328 42.7412262,14.64648 43.2292811,14.17688" id="Fill-14"></path>
                </g>
                <polygon id="Fill-17" fill="#19164F" points="43.0830244 36.45088 46.8916098 36.45088 46.8916098 22.22208 43.0830244 22.22208"></polygon>
                <g id="Group-28" transform="translate(48.725610, 21.384480)" fill="#19164F">
                    <path d="M11.5905445,14.59656 C10.5361543,15.10456 9.33478841,15.35976 7.98724573,15.35976 C6.89451402,15.35976 5.87926402,15.16856 4.94149573,14.78696 C4.00372744,14.40616 3.19855671,13.87736 2.52438598,13.20296 C1.85101402,12.52856 1.32302012,11.74536 0.94280061,10.85576 C0.561782317,9.96616 0.371672561,9.00296 0.371672561,7.96616 C0.371672561,6.93016 0.56737378,5.96136 0.957178659,5.06136 C1.34778232,4.16216 1.88536159,3.37496 2.56911768,2.69976 C3.252075,2.02536 4.05724573,1.49736 4.98462988,1.11576 C5.9128128,0.73416 6.9240689,0.54376 8.01680061,0.54376 C9.24692256,0.54376 10.384386,0.80296 11.4291909,1.32136 C12.4739957,1.83896 13.3286909,2.52936 13.9932762,3.38936 L11.2981909,5.76616 C10.9075872,5.25736 10.4339104,4.84616 9.87716037,4.53416 C9.32120915,4.22056 8.70055671,4.06456 8.01680061,4.06456 C7.46963598,4.06456 6.96241037,4.16696 6.494325,4.37256 C6.02464207,4.57736 5.61966037,4.85656 5.2785811,5.20856 C4.93670305,5.56056 4.66751402,5.97176 4.47261159,6.44056 C4.27691037,6.91016 4.17945915,7.41896 4.17945915,7.96616 C4.17945915,8.53336 4.27691037,9.05176 4.47261159,9.52136 C4.66751402,9.99016 4.93670305,10.39576 5.2785811,10.73816 C5.61966037,11.08136 6.03023354,11.34936 6.50870305,11.54536 C6.98717256,11.74056 7.51916037,11.83816 8.10466646,11.83816 C8.88587378,11.83816 9.56962988,11.64296 10.1559348,11.25176 C10.7414409,10.86056 11.1903555,10.43016 11.5034774,9.96136 L14.4326055,12.16136 C13.5922884,13.27656 12.6457335,14.08776 11.5905445,14.59656" id="Fill-18"></path>
                    <path d="M30.2678695,15.06584 L30.2678695,0.83704 L26.6070585,0.83704 L26.6070585,1.98184 C26.0399244,1.53144 25.4104854,1.17944 24.7171439,0.92504 C24.0238024,0.67064 23.2665585,0.54344 22.446211,0.54344 C21.4701012,0.54344 20.5626866,0.73464 19.7223695,1.11624 C18.8828512,1.49704 18.1455768,2.02024 17.5113451,2.68584 C16.8763146,3.34984 16.3786744,4.13304 16.0168268,5.03224 C15.655778,5.93224 15.4744549,6.90984 15.4744549,7.96584 C15.4744549,8.94424 15.6366073,9.85864 15.9585159,10.70904 C16.2804244,11.56024 16.7245463,12.30824 17.2908817,12.95304 C17.9163268,13.69704 18.7023268,14.28344 19.6496805,14.71384 C20.5962354,15.14424 21.5979061,15.35944 22.6514976,15.35944 C23.3743939,15.35944 24.0677354,15.24664 24.731522,15.02184 C25.3953085,14.79704 26.0199549,14.42984 26.6070585,13.92184 L26.6070585,15.06584 L30.2678695,15.06584 Z M26.4600829,10.07864 C26.08865,10.60664 25.6053878,11.03224 25.0094976,11.35464 C24.4136073,11.67704 23.7554122,11.83864 23.0325159,11.83864 C22.5053207,11.83864 22.0124732,11.74104 21.5531744,11.54584 C21.0946744,11.34984 20.6936866,11.08104 20.3518085,10.73864 C20.0107293,10.39624 19.7471317,9.99064 19.5610159,9.52104 C19.3756988,9.05224 19.2830402,8.53384 19.2830402,7.96584 C19.2830402,7.45784 19.3709061,6.96904 19.5466378,6.49944 C19.7223695,6.02984 19.9667963,5.61464 20.2791195,5.25224 C20.5914427,4.89064 20.972461,4.60184 21.4213756,4.38664 C21.8702902,4.17144 22.3783146,4.06424 22.94465,4.06424 C23.6867171,4.06424 24.360089,4.22584 24.9655646,4.54824 C25.5710402,4.87144 26.0694793,5.29704 26.4600829,5.82504 L26.4600829,10.07864 Z" id="Fill-20"></path>
                    <path d="M42.0030732,4.10832 C41.749061,4.07872 41.4854634,4.06432 41.2122805,4.06432 C40.8025061,4.06432 40.4111037,4.13312 40.0404695,4.26992 C39.6698354,4.40672 39.33275,4.57792 39.0300122,4.78352 C38.7264756,4.98832 38.4684695,5.20832 38.2535976,5.44272 C38.0387256,5.67792 37.8725793,5.90272 37.7551585,6.11792 L37.7551585,15.06592 L33.947372,15.06592 L33.947372,0.83712 L37.6089817,0.83712 L37.6089817,2.27472 C38.0387256,1.74672 38.6146463,1.32672 39.3375427,1.01312 C40.0596402,0.70032 40.8600183,0.54352 41.7386768,0.54352 C42.0126585,0.54352 42.2419085,0.55392 42.4272256,0.57312 C42.6125427,0.59312 42.8130366,0.62192 43.0279085,0.66112 L42.5885793,4.21072 C42.4519878,4.17152 42.2562866,4.13792 42.0030732,4.10832" id="Fill-22"></path>
                    <path d="M58.0321213,14.27352 L58.0321213,0.83752 L54.3705116,0.83752 L54.3705116,1.98152 C53.8041762,1.53112 53.1739384,1.17912 52.480597,0.92552 C51.7880543,0.67112 51.0308104,0.54392 50.2104628,0.54392 C49.2335543,0.54392 48.3261396,0.73432 47.4866213,1.11592 C46.647103,1.49752 45.9090299,2.02072 45.2747982,2.68552 C44.6397677,3.35032 44.1421274,4.13272 43.7810787,5.03272 C43.4200299,5.93192 43.2387067,6.91032 43.2387067,7.96632 C43.2387067,8.94392 43.3952677,9.85832 43.7075909,10.70872 C44.019914,11.55992 44.4592433,12.30792 45.0263774,12.95352 C45.6510238,13.69672 46.4418165,14.28392 47.3987555,14.71432 C48.3556945,15.14472 49.3613591,15.35912 50.4157494,15.35912 C51.8415726,15.35912 53.1108348,14.92872 54.223536,14.06872 L54.223536,14.53752 C54.223536,15.45672 54.150847,16.16152 54.0046701,16.64952 C53.8576945,17.13912 53.6380299,17.54952 53.3448774,17.88152 C53.0125848,18.27352 52.6028104,18.56232 52.1147555,18.74792 C51.6259018,18.93352 51.0699506,19.02632 50.4453043,19.02632 C49.8597982,19.02632 49.336597,18.95752 48.878097,18.82072 C48.4187982,18.68472 48.0090238,18.51272 47.647975,18.30712 C47.2861274,18.10232 46.9738043,17.88152 46.7102067,17.64792 C46.4466091,17.41272 46.2165604,17.18792 46.0216579,16.97272 L43.6205238,19.46632 C43.9711884,19.87672 44.3961396,20.26312 44.8937799,20.62552 C45.3922189,20.98712 45.9337921,21.29992 46.520097,21.56392 C47.105603,21.82792 47.7310482,22.03352 48.3948348,22.17992 C49.0586213,22.32712 49.7423774,22.39992 50.4453043,22.39992 C51.8120177,22.39992 53.0421396,22.15032 54.1364689,21.65192 C55.2292006,21.15352 56.0982738,20.45432 56.7428896,19.55432 C57.1726335,18.94792 57.4945421,18.23912 57.709414,17.42792 C57.924286,16.61592 58.0321213,15.56472 58.0321213,14.27352 Z M54.223536,10.07832 C53.8529018,10.60632 53.3696396,11.03192 52.7737494,11.35432 C52.1778591,11.67752 51.519664,11.83832 50.7959689,11.83832 C50.2687738,11.83832 49.776725,11.74072 49.3174262,11.54552 C48.8581274,11.34952 48.4579384,11.08072 48.1160604,10.73832 C47.7741823,10.39592 47.5105848,9.99032 47.3252677,9.52072 C47.1391518,9.05192 47.0472921,8.53352 47.0472921,7.96632 C47.0472921,7.45752 47.1343591,6.96872 47.3108896,6.49912 C47.4866213,6.02952 47.7310482,5.61432 48.0433713,5.25272 C48.3556945,4.89032 48.735914,4.60232 49.1856274,4.38712 C49.6337433,4.17192 50.1425665,4.06472 50.708103,4.06472 C51.4509689,4.06472 52.1243409,4.22552 52.7298165,4.54792 C53.3352921,4.87112 53.8329323,5.29672 54.223536,5.82472 L54.223536,10.07832 Z" id="Fill-24"></path>
                    <path d="M75.4734134,7.966 C75.4734134,6.9492 75.2833037,5.986 74.9022854,5.0764 C74.5212671,4.1668 73.994072,3.3796 73.3207,2.7148 C72.6465293,2.05 71.8453524,1.522 70.9187671,1.13 C69.9905841,0.7396 68.9897122,0.5436 67.9161512,0.5436 C66.8417915,0.5436 65.8409195,0.7396 64.9135354,1.13 C63.9853524,1.522 63.1849744,2.05 62.5108037,2.7148 C61.8374317,3.3796 61.3102366,4.1668 60.9292183,5.0764 C60.5489988,5.986 60.3580902,6.9492 60.3580902,7.966 C60.3580902,9.0028 60.5489988,9.966 60.9292183,10.8556 C61.3102366,11.746 61.8374317,12.5284 62.5108037,13.2028 C63.1849744,13.8772 63.9853524,14.406 64.9135354,14.7868 C65.8409195,15.1684 66.8417915,15.3596 67.9161512,15.3596 C68.9897122,15.3596 69.9905841,15.1684 70.9187671,14.7868 C71.8453524,14.406 72.6465293,13.8772 73.3207,13.2028 C73.994072,12.5284 74.5212671,11.746 74.9022854,10.8556 C75.2833037,9.966 75.4734134,9.0028 75.4734134,7.966 M71.664828,7.966 C71.664828,8.4948 71.5721695,8.9932 71.3868524,9.462 C71.2015354,9.9316 70.9475232,10.3428 70.6256146,10.6948 C70.3029073,11.046 69.907511,11.3252 69.4394256,11.5308 C68.9705415,11.7364 68.4625171,11.8388 67.9161512,11.8388 C67.3498159,11.8388 66.8369988,11.7364 66.3777,11.5308 C65.9192,11.3252 65.5285963,11.046 65.205889,10.6948 C64.8847793,10.3428 64.6299683,9.9316 64.4446512,9.462 C64.2593341,8.9932 64.1666756,8.4948 64.1666756,7.966 C64.1666756,7.438 64.2593341,6.9348 64.4446512,6.4548 C64.6299683,5.9764 64.8847793,5.5604 65.205889,5.2084 C65.5285963,4.8564 65.9192,4.5772 66.3777,4.3724 C66.8369988,4.1668 67.3498159,4.0644 67.9161512,4.0644 C68.4625171,4.0644 68.9705415,4.1668 69.4394256,4.3724 C69.907511,4.5772 70.3029073,4.8564 70.6256146,5.2084 C70.9475232,5.5604 71.2015354,5.9764 71.3868524,6.4548 C71.5721695,6.9348 71.664828,7.438 71.664828,7.966" id="Fill-26"></path>
                </g>
            </g>
        </g>
    </g>
</svg>